<svg version="1.0" xmlns="http://www.w3.org/2000/svg"
 width="600.000000pt" height="480.000000pt" viewBox="0 0 600.000000 480.000000"
 preserveAspectRatio="xMidYMid meet">

<g transform="translate(0.000000,480.000000) scale(0.100000,-0.100000)" fill="#000000" stroke="none">
    <path
        fill="#1c217e"
        d="M2805 4265 c-44 -19 -307 -126 -584 -239 -278 -113 -508 -211 -513
        -218 -13 -21 -9 -65 7 -78 8 -7 25 -12 38 -12 20 0 1116 440 1186 476 25 13
        31 23 31 49 0 67 -43 73 -165 22z"/>
    <path 
        fill="#1c217e"
        d="M2913 4006 c-205 -84 -375 -155 -379 -158 -3 -3 37 -16 88 -28 l93
        -22 300 122 c165 67 308 129 318 138 20 18 23 65 5 80 -33 25 -64 16 -425
        -132z"/>
    <path
        fill="#1c217e"
        d="M3212 3788 c-95 -39 -170 -73 -168 -75 2 -2 42 -14 89 -27 l86 -23
        109 44 c115 46 137 66 121 110 -7 21 -38 44 -56 42 -4 0 -86 -32 -181 -71z"/>
    <path 
        fill="#1c217e"
        d="M1970 3635 c-256 -95 -471 -177 -479 -182 -9 -6 64 -27 207 -61 l221
        -53 443 181 c244 100 447 185 453 188 8 5 -358 103 -375 101 -3 -1 -214 -79
        -470 -174z"/>
    <path 
        fill="#109b23"
        d="M2525 3504 c-231 -95 -431 -179 -445 -185 -23 -11 -10 -16 127 -50
        l153 -39 465 177 c256 98 465 180 465 183 0 5 -281 78 -330 86 -8 1 -204 -76
        -435 -172z"/>
    <path d="M3415 3550 c-11 -5 -198 -77 -415 -160 -217 -83 -421 -161 -452 -173
    l-57 -23 273 -68 273 -68 41 21 c23 12 223 93 444 182 222 88 406 164 411 168
    4 4 -100 34 -230 67 -275 68 -262 66 -288 54z"/>
    <path d="M4300 3407 l-255 -114 -3 44 c-2 24 -7 43 -12 43 -14 0 -741 -290
    -891 -356 l-66 -29 -7 -89 c-8 -112 -8 -1176 0 -1176 5 0 885 373 951 403 22
    10 23 12 25 260 l3 249 228 102 c130 57 233 109 239 119 14 26 1 66 -26 78
    -20 9 -72 -10 -376 -145 -194 -86 -365 -156 -380 -156 -49 0 -77 54 -47 93 11
    14 197 99 722 329 88 39 166 75 173 80 17 14 15 63 -4 82 -8 9 -25 16 -37 16
    -12 0 -251 -102 -532 -226 -553 -245 -544 -242 -574 -180 -9 20 -11 34 -4 45
    12 19 158 87 723 335 245 108 451 204 458 213 24 32 8 75 -33 87 -13 4 -108
    -33 -275 -107z"/>
    <path d="M1381 3343 c0 -27 8 -318 17 -648 l17 -600 785 -187 c432 -103 786
    -187 788 -188 8 -1 1 1223 -8 1244 -5 15 -17 26 -28 26 -10 0 -23 5 -28 10 -6
    6 -37 17 -70 26 -232 60 -411 104 -428 104 -21 0 -21 -2 -18 -365 1 -201 -1
    -365 -4 -365 -4 0 -68 45 -141 101 -74 55 -140 102 -147 105 -8 3 -59 -17
    -115 -45 -55 -28 -105 -51 -111 -51 -7 0 -10 128 -10 379 l0 379 -245 61
    c-135 33 -247 61 -250 61 -3 0 -5 -21 -4 -47z"/>
    <path d="M2284 3144 c9 -8 16 -27 17 -42 1 -39 7 -215 8 -226 1 -5 4 -6 9 -2
    10 10 11 235 1 264 -5 13 -17 22 -29 22 -20 0 -20 -1 -6 -16z"/>
    <path d="M1882 1478 c-11 -21 -85 -221 -132 -355 l-19 -53 53 0 c50 0 52 1 65
    35 l12 35 74 0 73 0 12 -35 c11 -34 13 -35 61 -35 27 0 49 4 49 9 0 7 -114
    323 -145 404 -5 12 -18 17 -49 17 -34 0 -45 -5 -54 -22z m82 -225 c7 -21 4
    -23 -29 -23 -34 0 -37 2 -31 25 3 13 11 37 17 52 l11 28 13 -30 c7 -16 16 -40
    19 -52z"/>
    <path d="M2299 1480 c-95 -17 -161 -93 -167 -194 -3 -49 0 -71 16 -102 85
    -165 307 -164 383 1 10 22 19 57 19 78 l0 37 -115 0 -115 0 0 -50 0 -50 53 0
    52 -1 -24 -19 c-38 -32 -94 -27 -138 13 -30 28 -36 40 -36 75 0 100 108 154
    185 92 23 -17 24 -17 58 11 42 35 36 53 -31 86 -53 26 -92 32 -140 23z"/>
    <path d="M2930 1480 c-102 -18 -171 -101 -172 -206 -2 -185 219 -282 352 -155
    22 21 40 42 40 48 0 5 -18 18 -40 28 l-39 18 -31 -27 c-62 -52 -158 -23 -181
    55 -11 37 -11 45 7 77 40 74 126 91 181 36 l24 -24 40 22 c21 12 39 25 39 28
    0 11 -44 55 -71 74 -33 21 -105 34 -149 26z"/>
    <path d="M3870 1482 c-56 -7 -90 -25 -128 -66 -83 -90 -81 -207 4 -293 149
    -149 400 -10 354 195 -23 104 -127 178 -230 164z m101 -128 c77 -74 23 -194
    -85 -194 -53 0 -97 43 -103 101 -4 39 -1 50 23 78 15 18 37 37 48 42 34 14 87
    2 117 -27z"/>
    <path d="M4213 1475 c-38 -16 -73 -68 -73 -108 0 -63 43 -104 142 -136 74 -24
    72 -71 -3 -71 -28 0 -43 6 -56 24 l-18 24 -37 -22 c-21 -11 -38 -26 -38 -31 0
    -22 35 -58 74 -76 53 -24 110 -24 161 1 50 24 70 58 69 113 -1 33 -8 47 -36
    72 -19 18 -57 40 -84 50 -59 22 -79 38 -71 59 9 23 60 20 82 -4 17 -19 18 -19
    56 3 21 12 39 26 39 31 0 5 -15 23 -34 41 -49 45 -112 57 -173 30z"/>
    <path d="M1278 1473 c-3 -8 -3 -53 0 -275 l2 -128 45 0 45 0 0 110 c0 61 3
    110 8 110 4 0 26 -34 50 -75 23 -41 49 -75 57 -75 8 0 34 34 57 75 24 41 46
    75 51 75 4 0 7 -49 7 -110 l0 -110 45 0 45 0 0 205 0 205 -49 0 -50 0 -52 -90
    c-28 -49 -53 -90 -54 -90 -2 0 -27 41 -56 90 l-53 90 -48 0 c-26 0 -48 -3 -50
    -7z"/>
    <path d="M2610 1275 l0 -205 50 0 50 0 0 205 0 205 -50 0 -50 0 0 -205z"/>
    <path d="M3370 1275 l0 -205 45 0 45 0 0 65 0 65 43 0 c118 0 191 111 139 209
    -29 54 -71 71 -179 71 l-93 0 0 -205z m184 99 c37 -36 -3 -89 -61 -82 -24 3
    -28 8 -31 36 -2 19 -1 40 2 48 7 19 71 18 90 -2z"/>
    <path
    fill="#25F4EE"
    d="M4450 1435 l0 -45 50 0 50 0 0 -160 0 -160 50 0 50 0 0 160 0 160 50
    0 50 0 0 45 0 45 -150 0 -150 0 0 -45z"/>
</g>
</svg>
